<svg id="visual" viewBox="0 0 900 600" width="900" height="600" xmlns="http://www.w3.org/2000/svg" xmlns:xlink="http://www.w3.org/1999/xlink" version="1.1"><g stroke-width="1" stroke-linejoin="bevel"><path d="M419.4 283.7L381.2 296.3L388.4 355.3Z" fill="#277297" stroke="#277297"></path><path d="M381.2 296.3L358.2 312.7L388.4 355.3Z" fill="#081a28" stroke="#081a28"></path><path d="M388.4 355.3L438.6 392L419.4 283.7Z" fill="#297ea6" stroke="#297ea6"></path><path d="M358.2 312.7L353.2 370L388.4 355.3Z" fill="#00101c" stroke="#00101c"></path><path d="M388.4 355.3L379.4 438L438.6 392Z" fill="#205a7a" stroke="#205a7a"></path><path d="M286.9 273.7L320.9 338.3L358.2 312.7Z" fill="#1d4e6b" stroke="#1d4e6b"></path><path d="M358.2 312.7L320.9 338.3L353.2 370Z" fill="#112e42" stroke="#112e42"></path><path d="M438.6 392L514.6 358.3L419.4 283.7Z" fill="#0c2435" stroke="#0c2435"></path><path d="M477.6 215.7L371.4 210L419.4 283.7Z" fill="#1d4e6b" stroke="#1d4e6b"></path><path d="M419.4 283.7L371.4 210L381.2 296.3Z" fill="#246688" stroke="#246688"></path><path d="M381.2 296.3L286.9 273.7L358.2 312.7Z" fill="#19435d" stroke="#19435d"></path><path d="M316.9 397L379.4 438L353.2 370Z" fill="#1d4e6b" stroke="#1d4e6b"></path><path d="M353.2 370L379.4 438L388.4 355.3Z" fill="#0c2435" stroke="#0c2435"></path><path d="M438.6 392L511.8 410L514.6 358.3Z" fill="#0c2435" stroke="#0c2435"></path><path d="M320.9 338.3L316.9 397L353.2 370Z" fill="#00101c" stroke="#00101c"></path><path d="M532.8 227.7L477.6 215.7L419.4 283.7Z" fill="#00101c" stroke="#00101c"></path><path d="M462.6 484.7L511.8 410L438.6 392Z" fill="#205a7a" stroke="#205a7a"></path><path d="M371.4 210L286.9 273.7L381.2 296.3Z" fill="#205a7a" stroke="#205a7a"></path><path d="M320.9 338.3L260.9 414.7L316.9 397Z" fill="#246688" stroke="#246688"></path><path d="M477.6 215.7L373.2 189L371.4 210Z" fill="#277297" stroke="#277297"></path><path d="M371.4 210L348.2 161.3L286.9 273.7Z" fill="#277297" stroke="#277297"></path><path d="M514.6 358.3L532.8 227.7L419.4 283.7Z" fill="#277297" stroke="#277297"></path><path d="M477.6 215.7L447.6 154.3L373.2 189Z" fill="#19435d" stroke="#19435d"></path><path d="M590.1 335.3L532.8 227.7L514.6 358.3Z" fill="#297ea6" stroke="#297ea6"></path><path d="M379.4 438L462.6 484.7L438.6 392Z" fill="#277297" stroke="#277297"></path><path d="M526.6 162L447.6 154.3L477.6 215.7Z" fill="#297ea6" stroke="#297ea6"></path><path d="M447.6 154.3L348.2 161.3L373.2 189Z" fill="#081a28" stroke="#081a28"></path><path d="M373.2 189L348.2 161.3L371.4 210Z" fill="#00101c" stroke="#00101c"></path><path d="M199.7 355.3L260.9 414.7L320.9 338.3Z" fill="#081a28" stroke="#081a28"></path><path d="M331.2 505.3L372.4 496.7L379.4 438Z" fill="#1d4e6b" stroke="#1d4e6b"></path><path d="M379.4 438L429.4 516.3L462.6 484.7Z" fill="#0c2435" stroke="#0c2435"></path><path d="M331.2 505.3L379.4 438L316.9 397Z" fill="#00101c" stroke="#00101c"></path><path d="M593.8 334.3L590.1 335.3L625.1 438Z" fill="#0c2435" stroke="#0c2435"></path><path d="M511.8 410L590.1 335.3L514.6 358.3Z" fill="#246688" stroke="#246688"></path><path d="M625.1 438L590.1 335.3L511.8 410Z" fill="#246688" stroke="#246688"></path><path d="M590.1 335.3L597.8 230L532.8 227.7Z" fill="#19435d" stroke="#19435d"></path><path d="M372.4 496.7L429.4 516.3L379.4 438Z" fill="#081a28" stroke="#081a28"></path><path d="M597.8 230L526.6 162L532.8 227.7Z" fill="#19435d" stroke="#19435d"></path><path d="M532.8 227.7L526.6 162L477.6 215.7Z" fill="#277297" stroke="#277297"></path><path d="M260.9 414.7L331.2 505.3L316.9 397Z" fill="#0c2435" stroke="#0c2435"></path><path d="M334.2 600L433.6 600L429.4 516.3Z" fill="#246688" stroke="#246688"></path><path d="M302.9 521.3L336.2 513.7L331.2 505.3Z" fill="#081a28" stroke="#081a28"></path><path d="M331.2 505.3L336.2 513.7L372.4 496.7Z" fill="#297ea6" stroke="#297ea6"></path><path d="M593.8 334.3L597.8 230L590.1 335.3Z" fill="#15384f" stroke="#15384f"></path><path d="M188.7 297.7L199.7 355.3L286.9 273.7Z" fill="#19435d" stroke="#19435d"></path><path d="M286.9 273.7L199.7 355.3L320.9 338.3Z" fill="#19435d" stroke="#19435d"></path><path d="M260.9 414.7L302.9 521.3L331.2 505.3Z" fill="#0c2435" stroke="#0c2435"></path><path d="M548.8 490.3L511.8 410L462.6 484.7Z" fill="#081a28" stroke="#081a28"></path><path d="M548.8 490.3L563.8 476.7L511.8 410Z" fill="#081a28" stroke="#081a28"></path><path d="M457.6 560.3L548.8 490.3L462.6 484.7Z" fill="#246688" stroke="#246688"></path><path d="M199.7 355.3L223.7 440.7L260.9 414.7Z" fill="#112e42" stroke="#112e42"></path><path d="M186.5 234.7L188.7 297.7L286.9 273.7Z" fill="#00101c" stroke="#00101c"></path><path d="M223.7 440.7L302.9 521.3L260.9 414.7Z" fill="#19435d" stroke="#19435d"></path><path d="M433.6 600L457.6 560.3L429.4 516.3Z" fill="#19435d" stroke="#19435d"></path><path d="M526.6 162L438.4 96.3L447.6 154.3Z" fill="#19435d" stroke="#19435d"></path><path d="M447.6 154.3L438.4 96.3L348.2 161.3Z" fill="#277297" stroke="#277297"></path><path d="M306.2 75.7L250.9 153L348.2 161.3Z" fill="#297ea6" stroke="#297ea6"></path><path d="M348.2 161.3L250.9 153L286.9 273.7Z" fill="#19435d" stroke="#19435d"></path><path d="M593.8 334.3L647.1 299.7L597.8 230Z" fill="#00101c" stroke="#00101c"></path><path d="M679.3 310.3L647.1 299.7L593.8 334.3Z" fill="#277297" stroke="#277297"></path><path d="M211.7 180L186.5 234.7L286.9 273.7Z" fill="#00101c" stroke="#00101c"></path><path d="M429.4 516.3L372.4 496.7L334.2 600Z" fill="#297ea6" stroke="#297ea6"></path><path d="M429.4 516.3L457.6 560.3L462.6 484.7Z" fill="#0c2435" stroke="#0c2435"></path><path d="M604.1 474.7L625.1 438L563.8 476.7Z" fill="#0c2435" stroke="#0c2435"></path><path d="M563.8 476.7L625.1 438L511.8 410Z" fill="#00101c" stroke="#00101c"></path><path d="M604.1 474.7L563.8 476.7L548.8 490.3Z" fill="#297ea6" stroke="#297ea6"></path><path d="M145.5 316.3L174.7 386L199.7 355.3Z" fill="#00101c" stroke="#00101c"></path><path d="M199.7 355.3L174.7 386L223.7 440.7Z" fill="#205a7a" stroke="#205a7a"></path><path d="M145.5 316.3L199.7 355.3L188.7 297.7Z" fill="#0c2435" stroke="#0c2435"></path><path d="M250.9 153L211.7 180L286.9 273.7Z" fill="#15384f" stroke="#15384f"></path><path d="M640.1 571.3L604.1 474.7L548.8 490.3Z" fill="#19435d" stroke="#19435d"></path><path d="M306.2 75.7L225.9 148.3L250.9 153Z" fill="#297ea6" stroke="#297ea6"></path><path d="M250.9 153L225.9 148.3L211.7 180Z" fill="#246688" stroke="#246688"></path><path d="M105.2 299.3L145.5 316.3L186.5 234.7Z" fill="#0c2435" stroke="#0c2435"></path><path d="M597.8 230L576.8 124.3L526.6 162Z" fill="#112e42" stroke="#112e42"></path><path d="M530.6 49.7L463.4 39.7L438.4 96.3Z" fill="#19435d" stroke="#19435d"></path><path d="M656.1 164L576.8 124.3L597.8 230Z" fill="#277297" stroke="#277297"></path><path d="M166.5 208L186.5 234.7L211.7 180Z" fill="#19435d" stroke="#19435d"></path><path d="M186.5 234.7L145.5 316.3L188.7 297.7Z" fill="#15384f" stroke="#15384f"></path><path d="M438.4 96.3L306.2 75.7L348.2 161.3Z" fill="#277297" stroke="#277297"></path><path d="M657.3 433.7L679.3 310.3L593.8 334.3Z" fill="#19435d" stroke="#19435d"></path><path d="M718.5 202L656.1 164L597.8 230Z" fill="#246688" stroke="#246688"></path><path d="M604.1 474.7L657.3 433.7L625.1 438Z" fill="#112e42" stroke="#112e42"></path><path d="M625.1 438L657.3 433.7L593.8 334.3Z" fill="#00101c" stroke="#00101c"></path><path d="M155.7 101.3L166.5 208L211.7 180Z" fill="#297ea6" stroke="#297ea6"></path><path d="M334.2 600L372.4 496.7L336.2 513.7Z" fill="#15384f" stroke="#15384f"></path><path d="M457.6 560.3L577.1 600L548.8 490.3Z" fill="#19435d" stroke="#19435d"></path><path d="M433.6 600L435.4 600L457.6 560.3Z" fill="#112e42" stroke="#112e42"></path><path d="M223.7 440.7L214.7 521.3L302.9 521.3Z" fill="#112e42" stroke="#112e42"></path><path d="M302.9 521.3L334.2 600L336.2 513.7Z" fill="#00101c" stroke="#00101c"></path><path d="M172.5 497.3L214.7 521.3L223.7 440.7Z" fill="#19435d" stroke="#19435d"></path><path d="M172.5 497.3L223.7 440.7L174.7 386Z" fill="#277297" stroke="#277297"></path><path d="M105.2 299.3L132.5 383L145.5 316.3Z" fill="#1d4e6b" stroke="#1d4e6b"></path><path d="M145.5 316.3L132.5 383L174.7 386Z" fill="#00101c" stroke="#00101c"></path><path d="M530.6 49.7L438.4 96.3L526.6 162Z" fill="#19435d" stroke="#19435d"></path><path d="M387.2 0L308.9 45.7L306.2 75.7Z" fill="#19435d" stroke="#19435d"></path><path d="M237.9 600L334.2 600L302.9 521.3Z" fill="#081a28" stroke="#081a28"></path><path d="M718.5 202L597.8 230L647.1 299.7Z" fill="#15384f" stroke="#15384f"></path><path d="M576.8 124.3L530.6 49.7L526.6 162Z" fill="#19435d" stroke="#19435d"></path><path d="M387.2 0L306.2 75.7L438.4 96.3Z" fill="#246688" stroke="#246688"></path><path d="M306.2 75.7L185.7 95.7L225.9 148.3Z" fill="#15384f" stroke="#15384f"></path><path d="M225.9 148.3L155.7 101.3L211.7 180Z" fill="#112e42" stroke="#112e42"></path><path d="M106.2 460.7L172.5 497.3L174.7 386Z" fill="#112e42" stroke="#112e42"></path><path d="M214.7 521.3L237.9 600L302.9 521.3Z" fill="#297ea6" stroke="#297ea6"></path><path d="M624.1 84.3L530.6 49.7L576.8 124.3Z" fill="#0c2435" stroke="#0c2435"></path><path d="M91.2 226L105.2 299.3L186.5 234.7Z" fill="#205a7a" stroke="#205a7a"></path><path d="M656.1 164L624.1 84.3L576.8 124.3Z" fill="#277297" stroke="#277297"></path><path d="M182.5 30.7L185.7 95.7L227.9 0Z" fill="#15384f" stroke="#15384f"></path><path d="M166.5 208L91.2 226L186.5 234.7Z" fill="#297ea6" stroke="#297ea6"></path><path d="M463.4 39.7L404.4 0L438.4 96.3Z" fill="#00101c" stroke="#00101c"></path><path d="M182.5 30.7L155.7 101.3L185.7 95.7Z" fill="#00101c" stroke="#00101c"></path><path d="M525.8 0L404.4 0L463.4 39.7Z" fill="#19435d" stroke="#19435d"></path><path d="M525.8 0L463.4 39.7L530.6 49.7Z" fill="#297ea6" stroke="#297ea6"></path><path d="M435.4 600L577.1 600L457.6 560.3Z" fill="#1d4e6b" stroke="#1d4e6b"></path><path d="M741.5 484.3L726.3 437L657.3 433.7Z" fill="#081a28" stroke="#081a28"></path><path d="M404.4 0L387.2 0L438.4 96.3Z" fill="#0c2435" stroke="#0c2435"></path><path d="M577.1 600L577.8 600L548.8 490.3Z" fill="#00101c" stroke="#00101c"></path><path d="M228.7 600L237.9 600L214.7 521.3Z" fill="#1d4e6b" stroke="#1d4e6b"></path><path d="M733.3 241.7L647.1 299.7L679.3 310.3Z" fill="#246688" stroke="#246688"></path><path d="M733.3 241.7L718.5 202L647.1 299.7Z" fill="#297ea6" stroke="#297ea6"></path><path d="M656.1 164L726.5 109.3L624.1 84.3Z" fill="#0c2435" stroke="#0c2435"></path><path d="M726.3 437L740.5 352L657.3 433.7Z" fill="#081a28" stroke="#081a28"></path><path d="M657.3 433.7L740.5 352L679.3 310.3Z" fill="#081a28" stroke="#081a28"></path><path d="M155.5 600L228.7 600L214.7 521.3Z" fill="#112e42" stroke="#112e42"></path><path d="M778.5 270.7L733.3 241.7L679.3 310.3Z" fill="#15384f" stroke="#15384f"></path><path d="M820.8 164.3L715.3 186L718.5 202Z" fill="#297ea6" stroke="#297ea6"></path><path d="M718.5 202L715.3 186L656.1 164Z" fill="#081a28" stroke="#081a28"></path><path d="M103.5 118.3L91.2 226L166.5 208Z" fill="#00101c" stroke="#00101c"></path><path d="M89.5 431.7L106.2 460.7L132.5 383Z" fill="#19435d" stroke="#19435d"></path><path d="M132.5 383L106.2 460.7L174.7 386Z" fill="#297ea6" stroke="#297ea6"></path><path d="M172.5 497.3L155.5 600L214.7 521.3Z" fill="#081a28" stroke="#081a28"></path><path d="M89.5 431.7L132.5 383L43.2 426Z" fill="#15384f" stroke="#15384f"></path><path d="M640.1 571.3L657.3 433.7L604.1 474.7Z" fill="#246688" stroke="#246688"></path><path d="M624.1 84.3L547.8 15.7L530.6 49.7Z" fill="#0c2435" stroke="#0c2435"></path><path d="M185.7 95.7L306.2 75.7L227.9 0Z" fill="#081a28" stroke="#081a28"></path><path d="M185.7 95.7L155.7 101.3L225.9 148.3Z" fill="#246688" stroke="#246688"></path><path d="M577.8 600L640.1 571.3L548.8 490.3Z" fill="#19435d" stroke="#19435d"></path><path d="M40.2 299.7L132.5 383L105.2 299.3Z" fill="#246688" stroke="#246688"></path><path d="M547.8 15.7L525.8 0L530.6 49.7Z" fill="#00101c" stroke="#00101c"></path><path d="M607.1 0L532.6 0L547.8 15.7Z" fill="#205a7a" stroke="#205a7a"></path><path d="M547.8 15.7L532.6 0L525.8 0Z" fill="#19435d" stroke="#19435d"></path><path d="M640.1 571.3L741.5 484.3L657.3 433.7Z" fill="#277297" stroke="#277297"></path><path d="M794.8 418L781.5 321.3L740.5 352Z" fill="#246688" stroke="#246688"></path><path d="M93.2 89.3L103.5 118.3L155.7 101.3Z" fill="#112e42" stroke="#112e42"></path><path d="M155.7 101.3L103.5 118.3L166.5 208Z" fill="#297ea6" stroke="#297ea6"></path><path d="M740.5 352L778.5 270.7L679.3 310.3Z" fill="#19435d" stroke="#19435d"></path><path d="M733.3 241.7L820.8 164.3L718.5 202Z" fill="#0c2435" stroke="#0c2435"></path><path d="M781.5 431.7L740.5 352L726.3 437Z" fill="#246688" stroke="#246688"></path><path d="M227.9 0L306.2 75.7L308.9 45.7Z" fill="#00101c" stroke="#00101c"></path><path d="M387.2 0L227.9 0L308.9 45.7Z" fill="#15384f" stroke="#15384f"></path><path d="M781.5 321.3L778.5 270.7L740.5 352Z" fill="#081a28" stroke="#081a28"></path><path d="M0 223.7L40.2 299.7L91.2 226Z" fill="#205a7a" stroke="#205a7a"></path><path d="M91.2 226L40.2 299.7L105.2 299.3Z" fill="#297ea6" stroke="#297ea6"></path><path d="M46.2 543.3L172.5 497.3L106.2 460.7Z" fill="#112e42" stroke="#112e42"></path><path d="M46.2 543.3L155.5 600L172.5 497.3Z" fill="#19435d" stroke="#19435d"></path><path d="M674.1 31.7L607.1 0L624.1 84.3Z" fill="#19435d" stroke="#19435d"></path><path d="M624.1 84.3L607.1 0L547.8 15.7Z" fill="#00101c" stroke="#00101c"></path><path d="M726.5 109.3L656.1 164L715.3 186Z" fill="#297ea6" stroke="#297ea6"></path><path d="M820.8 164.3L726.5 109.3L715.3 186Z" fill="#112e42" stroke="#112e42"></path><path d="M40.2 299.7L43.2 426L132.5 383Z" fill="#0c2435" stroke="#0c2435"></path><path d="M89.5 431.7L43.2 426L106.2 460.7Z" fill="#1d4e6b" stroke="#1d4e6b"></path><path d="M741.5 484.3L781.5 431.7L726.3 437Z" fill="#297ea6" stroke="#297ea6"></path><path d="M577.8 600L680.3 600L640.1 571.3Z" fill="#297ea6" stroke="#297ea6"></path><path d="M640.1 571.3L712.3 569.3L741.5 484.3Z" fill="#19435d" stroke="#19435d"></path><path d="M741.5 484.3L783.8 484.3L781.5 431.7Z" fill="#081a28" stroke="#081a28"></path><path d="M680.3 600L712.3 569.3L640.1 571.3Z" fill="#19435d" stroke="#19435d"></path><path d="M683.3 38.7L674.1 31.7L624.1 84.3Z" fill="#246688" stroke="#246688"></path><path d="M726.5 109.3L683.3 38.7L624.1 84.3Z" fill="#297ea6" stroke="#297ea6"></path><path d="M182.5 30.7L93.2 89.3L155.7 101.3Z" fill="#15384f" stroke="#15384f"></path><path d="M227.9 0L185.7 0L182.5 30.7Z" fill="#246688" stroke="#246688"></path><path d="M72.2 41.7L93.2 89.3L107.5 0Z" fill="#112e42" stroke="#112e42"></path><path d="M0 217L0 223.7L91.2 226Z" fill="#277297" stroke="#277297"></path><path d="M830.8 443.7L794.8 418L781.5 431.7Z" fill="#205a7a" stroke="#205a7a"></path><path d="M781.5 431.7L794.8 418L740.5 352Z" fill="#0c2435" stroke="#0c2435"></path><path d="M781.5 321.3L830.8 286.7L778.5 270.7Z" fill="#0c2435" stroke="#0c2435"></path><path d="M820.8 164.3L729.3 83.3L726.5 109.3Z" fill="#00101c" stroke="#00101c"></path><path d="M726.5 109.3L729.3 83.3L683.3 38.7Z" fill="#297ea6" stroke="#297ea6"></path><path d="M712.3 569.3L783.8 484.3L741.5 484.3Z" fill="#00101c" stroke="#00101c"></path><path d="M40.2 299.7L0 378.3L43.2 426Z" fill="#0c2435" stroke="#0c2435"></path><path d="M43.2 426L46.2 543.3L106.2 460.7Z" fill="#112e42" stroke="#112e42"></path><path d="M0 223.7L0 378.3L40.2 299.7Z" fill="#15384f" stroke="#15384f"></path><path d="M781.5 30.7L680.3 0L683.3 38.7Z" fill="#00101c" stroke="#00101c"></path><path d="M683.3 38.7L680.3 0L674.1 31.7Z" fill="#0c2435" stroke="#0c2435"></path><path d="M674.1 31.7L680.3 0L607.1 0Z" fill="#00101c" stroke="#00101c"></path><path d="M0 378.3L0 413L43.2 426Z" fill="#081a28" stroke="#081a28"></path><path d="M840.8 354.3L830.8 286.7L781.5 321.3Z" fill="#081a28" stroke="#081a28"></path><path d="M778.5 270.7L820.8 164.3L733.3 241.7Z" fill="#246688" stroke="#246688"></path><path d="M840.8 354.3L781.5 321.3L794.8 418Z" fill="#277297" stroke="#277297"></path><path d="M0 217L91.2 226L0 160.3Z" fill="#112e42" stroke="#112e42"></path><path d="M0 160.3L91.2 226L103.5 118.3Z" fill="#277297" stroke="#277297"></path><path d="M0 413L0 429.7L43.2 426Z" fill="#1d4e6b" stroke="#1d4e6b"></path><path d="M0 429.7L46.2 543.3L43.2 426Z" fill="#112e42" stroke="#112e42"></path><path d="M830.8 443.7L840.8 354.3L794.8 418Z" fill="#112e42" stroke="#112e42"></path><path d="M680.3 600L746.5 600L712.3 569.3Z" fill="#277297" stroke="#277297"></path><path d="M712.3 569.3L746.5 600L783.8 484.3Z" fill="#15384f" stroke="#15384f"></path><path d="M783.8 484.3L830.8 443.7L781.5 431.7Z" fill="#246688" stroke="#246688"></path><path d="M900 560.3L830.8 443.7L783.8 484.3Z" fill="#1d4e6b" stroke="#1d4e6b"></path><path d="M852.8 153L820.8 164.3L830.8 286.7Z" fill="#1d4e6b" stroke="#1d4e6b"></path><path d="M830.8 286.7L820.8 164.3L778.5 270.7Z" fill="#0c2435" stroke="#0c2435"></path><path d="M729.3 83.3L781.5 30.7L683.3 38.7Z" fill="#112e42" stroke="#112e42"></path><path d="M107.5 0L93.2 89.3L182.5 30.7Z" fill="#112e42" stroke="#112e42"></path><path d="M93.2 89.3L0 160.3L103.5 118.3Z" fill="#00101c" stroke="#00101c"></path><path d="M0 561.3L67.2 600L46.2 543.3Z" fill="#246688" stroke="#246688"></path><path d="M46.2 543.3L67.2 600L155.5 600Z" fill="#081a28" stroke="#081a28"></path><path d="M0 53.7L0 160.3L93.2 89.3Z" fill="#1d4e6b" stroke="#1d4e6b"></path><path d="M185.7 0L107.5 0L182.5 30.7Z" fill="#277297" stroke="#277297"></path><path d="M820.8 164.3L781.5 30.7L729.3 83.3Z" fill="#112e42" stroke="#112e42"></path><path d="M900 165L852.8 153L830.8 286.7Z" fill="#277297" stroke="#277297"></path><path d="M820.8 164.3L837.8 36.7L781.5 30.7Z" fill="#277297" stroke="#277297"></path><path d="M0 429.7L0 561.3L46.2 543.3Z" fill="#19435d" stroke="#19435d"></path><path d="M746.5 600L808.8 600L783.8 484.3Z" fill="#112e42" stroke="#112e42"></path><path d="M840.8 354.3L900 317.7L830.8 286.7Z" fill="#1d4e6b" stroke="#1d4e6b"></path><path d="M900 349.3L900 317.7L840.8 354.3Z" fill="#0c2435" stroke="#0c2435"></path><path d="M900 349.3L840.8 354.3L900 410Z" fill="#297ea6" stroke="#297ea6"></path><path d="M900 410L840.8 354.3L830.8 443.7Z" fill="#0c2435" stroke="#0c2435"></path><path d="M37.2 0L0 53.7L72.2 41.7Z" fill="#081a28" stroke="#081a28"></path><path d="M72.2 41.7L0 53.7L93.2 89.3Z" fill="#297ea6" stroke="#297ea6"></path><path d="M107.5 0L37.2 0L72.2 41.7Z" fill="#081a28" stroke="#081a28"></path><path d="M837.8 36.7L787.5 0L781.5 30.7Z" fill="#112e42" stroke="#112e42"></path><path d="M781.5 30.7L787.5 0L680.3 0Z" fill="#19435d" stroke="#19435d"></path><path d="M0 561.3L0 600L67.2 600Z" fill="#19435d" stroke="#19435d"></path><path d="M900 443.7L900 410L830.8 443.7Z" fill="#277297" stroke="#277297"></path><path d="M900 560.3L900 443.7L830.8 443.7Z" fill="#246688" stroke="#246688"></path><path d="M852.8 153L837.8 36.7L820.8 164.3Z" fill="#15384f" stroke="#15384f"></path><path d="M900 72.7L837.8 36.7L852.8 153Z" fill="#19435d" stroke="#19435d"></path><path d="M900 317.7L900 165L830.8 286.7Z" fill="#1d4e6b" stroke="#1d4e6b"></path><path d="M900 165L900 146.3L852.8 153Z" fill="#19435d" stroke="#19435d"></path><path d="M37.2 0L0 0L0 53.7Z" fill="#081a28" stroke="#081a28"></path><path d="M808.8 600L900 560.3L783.8 484.3Z" fill="#205a7a" stroke="#205a7a"></path><path d="M900 0L853.8 0L837.8 36.7Z" fill="#0c2435" stroke="#0c2435"></path><path d="M837.8 36.7L853.8 0L787.5 0Z" fill="#0c2435" stroke="#0c2435"></path><path d="M900 146.3L900 72.7L852.8 153Z" fill="#277297" stroke="#277297"></path><path d="M808.8 600L900 600L900 560.3Z" fill="#277297" stroke="#277297"></path><path d="M900 72.7L900 0L837.8 36.7Z" fill="#15384f" stroke="#15384f"></path></g></svg>