<svg id="Capa_1" data-name="Capa 1" xmlns="http://www.w3.org/2000/svg" viewBox="0 0 88.53 84.88"><defs><style>.cls-1{fill:#fff;}</style></defs><title>simboloMas</title><path class="cls-1" d="M952,531.85H922.37c-3.19,0-5.81,1.67-6.35,4.5a16.68,16.68,0,0,0,0,6.18c.57,2.94,3.16,4.53,6.64,4.54,9.13,0,18.26,0,27.39,0h2V549q0,13.53,0,27.08a6.08,6.08,0,0,0,5.67,6.32,30.34,30.34,0,0,0,3.44.08c4.25-.06,6.76-2.61,6.76-6.89q0-13.23,0-26.46v-2H997c4.8,0,7.26-2.47,7.24-7.21v-.94c0-4.6-2.46-7.07-7-7.07H967.93v-1.94c0-8.61,0-17.22,0-25.82a6.21,6.21,0,0,0-6.35-6.51q-1.49,0-3,0c-4.12.12-6.56,2.62-6.56,6.74q0,12.84,0,25.67Z" transform="translate(-915.74 -497.56)"/></svg>